<svg xmlns="http://www.w3.org/2000/svg" width="360" height="436" viewBox="0 0 360 436">
  <style>
    text { font-family: "Courier New", monospace; fill: #1a1a1a; }
    .h { font-size: 19px; font-weight: bold; letter-spacing: 1px; }
    .s { font-size: 11px; fill: #666; }
    .i { font-size: 13px; }
    .r { text-anchor: end; }
    .t { font-size: 15px; font-weight: bold; }
    .f { font-size: 10px; fill: #888; }
  </style>
  <rect width="360" height="436" fill="#fffdf8"/>
  <rect x="8" y="8" width="344" height="420" fill="#fff" stroke="#e2ded4"/>
  <text x="180" y="48" class="h" text-anchor="middle">OLIVE GARDEN</text>
  <text x="180" y="66" class="s" text-anchor="middle">1200 Market St, Atlanta GA</text>
  <text x="180" y="82" class="s" text-anchor="middle">Sept 12, 2026  7:42 PM</text>
  <line x1="24" y1="100" x2="336" y2="100" stroke="#ddd" stroke-dasharray="3 3"/>
  <text x="24" y="118" class="s">ITEM</text><text x="336" y="118" class="s r">AMOUNT</text>
  <text x="24" y="132" class="i">Chicken Parmigiana</text><text x="336" y="132" class="i r">$21.99</text>
  <text x="24" y="154" class="i">Tour of Italy</text><text x="336" y="154" class="i r">$24.99</text>
  <text x="24" y="176" class="i">Shrimp Scampi</text><text x="336" y="176" class="i r">$23.49</text>
  <text x="24" y="198" class="i">Lasagna Classico</text><text x="336" y="198" class="i r">$19.99</text>
  <text x="24" y="220" class="i">Calamari (shared)</text><text x="336" y="220" class="i r">$14.99</text>
  <text x="24" y="242" class="i">Soft drinks x6</text><text x="336" y="242" class="i r">$17.94</text>
  <text x="24" y="264" class="i">Tiramisu x3</text><text x="336" y="264" class="i r">$23.97</text>
  <line x1="24" y1="290" x2="336" y2="290" stroke="#ddd" stroke-dasharray="3 3"/>
  <text x="24" y="314" class="i">Subtotal</text><text x="336" y="314" class="i r">$147.36</text>
  <text x="24" y="336" class="i">Tax</text><text x="336" y="336" class="i r">$12.64</text>
  <line x1="24" y1="348" x2="336" y2="348" stroke="#333"/>
  <text x="24" y="372" class="t">TOTAL</text><text x="336" y="372" class="t r">$180.00</text>
  <text x="180" y="400" class="f" text-anchor="middle">VISA ****4417  APPROVED</text>
  <text x="180" y="418" class="f" text-anchor="middle">*** SAMPLE RECEIPT - NOT A REAL TRANSACTION ***</text>
</svg>
